<svg xmlns="http://www.w3.org/2000/svg" width="240" height="60" viewBox="0 0 240 60">
  <rect width="240" height="60" rx="8" fill="#0055a4" />
  <g fill="#fff" transform="translate(40,10)">
    <path d="M62 6c-9 0-16 7-16 16v6c0 2.8-1.8 5.3-4.4 6.1-0.4 0.1-0.6 0.5-0.5 0.9 0 0.6 0.5 1 1.1 1h42.6c0.6 0 1.1-0.4 1.1-1 0.1-0.4-0.1-0.8-0.5-0.9-2.6-0.8-4.4-3.3-4.4-6.1v-6c0-9-7-16-16-16z"/>
    <circle cx="62" cy="46" r="4" />
  </g>
  <text x="150" y="38" font-family="Segoe UI, Tahoma, Geneva, Verdana, sans-serif" font-size="16" fill="#fff">Bell</text>
</svg>
